<?xml version="1.0" standalone="no"?>
<!DOCTYPE svg PUBLIC "-//W3C//DTD SVG 20010904//EN"
 "http://www.w3.org/TR/2001/REC-SVG-20010904/DTD/svg10.dtd">
<svg version="1.0" xmlns="http://www.w3.org/2000/svg"
 width="96.000000pt" height="96.000000pt" viewBox="0 0 96.000000 96.000000"
 preserveAspectRatio="xMidYMid meet">
<metadata>
Created by potrace 1.14, written by Peter Selinger 2001-2017
</metadata>
<g transform="translate(0.000000,96.000000) scale(0.100000,-0.100000)"
fill="#000000" stroke="none">
<path d="M494 842 c-64 -27 -107 -65 -139 -123 -26 -47 -30 -64 -30 -129 1
-41 6 -85 13 -97 11 -20 2 -32 -123 -158 -152 -153 -160 -169 -105 -225 48
-49 109 -38 130 24 8 26 20 38 46 46 23 8 34 18 34 31 0 34 18 57 50 64 17 4
46 21 65 40 34 32 36 32 73 20 53 -19 149 -13 199 13 51 27 105 81 130 130 23
47 23 171 0 222 -22 50 -75 104 -125 130 -59 29 -163 35 -218 12z m216 -121
c19 -15 25 -29 25 -60 0 -53 -23 -76 -75 -76 -47 0 -69 19 -76 66 -5 28 -1 39
21 62 33 32 70 35 105 8z"/>
</g>
</svg>
